G04 ===== Begin FILE IDENTIFICATION =====*
G04 File Format:  Gerber RS274X*
G04 ===== End FILE IDENTIFICATION =====*
%FSLAX24Y24*%
%MOMM*%
%SFA1.0000B1.0000*%
%OFA0.0B0.0*%
%ADD14R,5.000000X1.882501*%
%ADD15C,0.000635*%
%ADD16R,0.895447X0.218966*%
%ADD17R,0.201051X2.355499*%
%ADD18R,0.254000X30.499200*%
%ADD19R,1.850560X1.312662*%
%ADD20R,1.761399X2.026110*%
%ADD21R,3.165450X7.742580*%
%LNcond*%
%IPPOS*%
%LPD*%
G75*
D14*
X103740Y-87630D03*
D15*
G01X78740Y-82550D02*
G01X73660D01*
G01Y-92710D01*
G01X78740D01*
G01Y-82550D01*

G01X73660Y-92710D01*
G01X78740D02*
G01X73660Y-82550D01*
G36*
G01X128740Y-78217D02*
G01Y-99407D01*
G01X137694D01*
G01Y-75853D01*
G01X133217D01*
G01Y-78217D01*
G01X128740D01*
G37*
D16*
X133217Y-100502D03*
D17*
X138700Y-87630D03*
G36*
G01X142245Y-99497D02*
G01Y-75763D01*
G01X139705D01*
G01Y-99407D01*
G01X140975D01*
G01Y-99497D01*
G01X142245D01*
G37*
G36*
G01X158574Y-95314D02*
G01X252642D01*
G01Y-82187D01*
G01X204338D01*
G01Y-88750D01*
G01X158574D01*
G01Y-95314D01*
G37*
D18*
X205608Y70309D03*
D15*
G01X171450Y231140D02*
G01X166370D01*
G01Y220980D01*
G01X171450D01*
G01Y231140D01*

G01X166370Y220980D01*
G01X171450D02*
G01X166370Y231140D01*
D18*
X140975Y76733D03*
D15*
G01X132080Y257810D02*
G01X127000D01*
G01Y247650D01*
G01X132080D01*
G01Y257810D01*

G01X127000Y247650D01*
G01X132080D02*
G01X127000Y257810D01*
G01X185420Y250190D02*
G01Y245110D01*
G01X195580D01*
G01Y250190D01*
G01X185420D01*

G01X195580Y245110D01*
G01Y250190D02*
G01X185420Y245110D01*
G01X182880Y276860D02*
G01Y271780D01*
G01X193040D01*
G01Y276860D01*
G01X182880D01*

G01X193040Y271780D01*
G01Y276860D02*
G01X182880Y271780D01*
G01X175260Y283210D02*
G01X180340D01*
G01Y293370D01*
G01X175260D01*
G01Y283210D01*

G01X180340Y293370D01*
G01X175260D02*
G01X180340Y283210D01*
G01X210820Y276860D02*
G01Y271780D01*
G01X220980D01*
G01Y276860D01*
G01X210820D01*

G01X220980Y271780D01*
G01Y276860D02*
G01X210820Y271780D01*
G01X217170Y236220D02*
G01X222250D01*
G01Y246380D01*
G01X217170D01*
G01Y236220D01*

G01X222250Y246380D01*
G01X217170D02*
G01X222250Y236220D01*
D19*
X261895Y-88750D03*
G36*
G01X271148Y-82187D02*
G01Y-98163D01*
G01X288762D01*
G01Y-79338D01*
G01X279955D01*
G01Y-82187D01*
G01X271148D01*
G37*
D14*
X313762Y-88750D03*
D15*
G01X338762Y-93830D02*
G01X343842D01*
G01Y-83670D01*
G01X338762D01*
G01Y-93830D01*

G01X343842Y-83670D01*
G01X338762D02*
G01X343842Y-93830D01*
D20*
X279955Y-108293D03*
D21*
X157607Y-139038D03*
M02*

